<svg xmlns="http://www.w3.org/2000/svg" version="1.1" xmlns:xlink="http://www.w3.org/1999/xlink" xmlns:svgjs="http://svgjs.dev/svgjs" width="1440" height="560" preserveAspectRatio="none" viewBox="0 0 1440 560"><g mask="url(&quot;#SvgjsMask1063&quot;)" fill="none"><path d="M544 458L543 609" stroke-width="8" stroke="url(&quot;#SvgjsLinearGradient1064&quot;)" stroke-linecap="round" class="Down"></path><path d="M1037 508L1036 731" stroke-width="8" stroke="url(&quot;#SvgjsLinearGradient1064&quot;)" stroke-linecap="round" class="Down"></path><path d="M239 278L238 6" stroke-width="8" stroke="url(&quot;#SvgjsLinearGradient1065&quot;)" stroke-linecap="round" class="Up"></path><path d="M1432 283L1431 -34" stroke-width="10" stroke="url(&quot;#SvgjsLinearGradient1065&quot;)" stroke-linecap="round" class="Up"></path><path d="M472 241L471 -127" stroke-width="10" stroke="url(&quot;#SvgjsLinearGradient1065&quot;)" stroke-linecap="round" class="Up"></path><path d="M1085 25L1084 219" stroke-width="6" stroke="url(&quot;#SvgjsLinearGradient1064&quot;)" stroke-linecap="round" class="Down"></path><path d="M1420 119L1419 -173" stroke-width="8" stroke="url(&quot;#SvgjsLinearGradient1065&quot;)" stroke-linecap="round" class="Up"></path><path d="M446 240L445 99" stroke-width="8" stroke="url(&quot;#SvgjsLinearGradient1065&quot;)" stroke-linecap="round" class="Up"></path><path d="M972 68L971 220" stroke-width="6" stroke="url(&quot;#SvgjsLinearGradient1064&quot;)" stroke-linecap="round" class="Down"></path><path d="M1135 94L1134 330" stroke-width="10" stroke="url(&quot;#SvgjsLinearGradient1064&quot;)" stroke-linecap="round" class="Down"></path><path d="M591 512L590 370" stroke-width="6" stroke="url(&quot;#SvgjsLinearGradient1065&quot;)" stroke-linecap="round" class="Up"></path><path d="M515 462L514 711" stroke-width="8" stroke="url(&quot;#SvgjsLinearGradient1064&quot;)" stroke-linecap="round" class="Down"></path><path d="M1349 458L1348 854" stroke-width="8" stroke="url(&quot;#SvgjsLinearGradient1064&quot;)" stroke-linecap="round" class="Down"></path><path d="M701 1L700 -233" stroke-width="8" stroke="url(&quot;#SvgjsLinearGradient1064&quot;)" stroke-linecap="round" class="Down"></path><path d="M1400 360L1399 767" stroke-width="10" stroke="url(&quot;#SvgjsLinearGradient1064&quot;)" stroke-linecap="round" class="Down"></path><path d="M727 351L726 682" stroke-width="8" stroke="url(&quot;#SvgjsLinearGradient1065&quot;)" stroke-linecap="round" class="Up"></path><path d="M194 257L193 -122" stroke-width="10" stroke="url(&quot;#SvgjsLinearGradient1065&quot;)" stroke-linecap="round" class="Up"></path><path d="M192 445L191 588" stroke-width="6" stroke="url(&quot;#SvgjsLinearGradient1065&quot;)" stroke-linecap="round" class="Up"></path><path d="M60 23L59 384" stroke-width="10" stroke="url(&quot;#SvgjsLinearGradient1064&quot;)" stroke-linecap="round" class="Down"></path><path d="M286 519L285 350" stroke-width="10" stroke="url(&quot;#SvgjsLinearGradient1064&quot;)" stroke-linecap="round" class="Down"></path><path d="M1159 240L1158 -14" stroke-width="6" stroke="url(&quot;#SvgjsLinearGradient1065&quot;)" stroke-linecap="round" class="Up"></path><path d="M13 26L12 -335" stroke-width="8" stroke="url(&quot;#SvgjsLinearGradient1064&quot;)" stroke-linecap="round" class="Down"></path><path d="M502 527L501 340" stroke-width="8" stroke="url(&quot;#SvgjsLinearGradient1065&quot;)" stroke-linecap="round" class="Up"></path><path d="M1014 465L1013 694" stroke-width="10" stroke="url(&quot;#SvgjsLinearGradient1064&quot;)" stroke-linecap="round" class="Down"></path><path d="M1043 446L1042 248" stroke-width="6" stroke="url(&quot;#SvgjsLinearGradient1065&quot;)" stroke-linecap="round" class="Up"></path><path d="M581 83L580 -88" stroke-width="6" stroke="url(&quot;#SvgjsLinearGradient1064&quot;)" stroke-linecap="round" class="Down"></path><path d="M1073 93L1072 504" stroke-width="10" stroke="url(&quot;#SvgjsLinearGradient1065&quot;)" stroke-linecap="round" class="Up"></path><path d="M224 385L223 778" stroke-width="6" stroke="url(&quot;#SvgjsLinearGradient1065&quot;)" stroke-linecap="round" class="Up"></path><path d="M297 259L296 77" stroke-width="8" stroke="url(&quot;#SvgjsLinearGradient1065&quot;)" stroke-linecap="round" class="Up"></path><path d="M881 198L880 471" stroke-width="10" stroke="url(&quot;#SvgjsLinearGradient1065&quot;)" stroke-linecap="round" class="Up"></path><path d="M808 312L807 603" stroke-width="6" stroke="url(&quot;#SvgjsLinearGradient1065&quot;)" stroke-linecap="round" class="Up"></path><path d="M669 533L668 713" stroke-width="10" stroke="url(&quot;#SvgjsLinearGradient1064&quot;)" stroke-linecap="round" class="Down"></path><path d="M1079 525L1078 799" stroke-width="10" stroke="url(&quot;#SvgjsLinearGradient1065&quot;)" stroke-linecap="round" class="Up"></path><path d="M1263 442L1262 609" stroke-width="6" stroke="url(&quot;#SvgjsLinearGradient1064&quot;)" stroke-linecap="round" class="Down"></path><path d="M992 208L991 -137" stroke-width="10" stroke="url(&quot;#SvgjsLinearGradient1064&quot;)" stroke-linecap="round" class="Down"></path><path d="M565 90L564 -192" stroke-width="8" stroke="url(&quot;#SvgjsLinearGradient1065&quot;)" stroke-linecap="round" class="Up"></path></g><defs><mask id="SvgjsMask1063"><rect width="1440" height="560" fill="#ffffff"></rect></mask><linearGradient x1="0%" y1="0%" x2="0%" y2="100%" id="SvgjsLinearGradient1064"><stop stop-color="rgba(0, 0, 0, 0)" offset="0"></stop><stop stop-color="rgba(0, 0, 0, 1)" offset="1"></stop></linearGradient><linearGradient x1="0%" y1="100%" x2="0%" y2="0%" id="SvgjsLinearGradient1065"><stop stop-color="rgba(0, 0, 0, 0)" offset="0"></stop><stop stop-color="rgba(0, 0, 0, 1)" offset="1"></stop></linearGradient></defs></svg>