<svg width="536" height="379" viewBox="0 0 536 379" fill="none" xmlns="http://www.w3.org/2000/svg">
<path d="M378 19L448.939 136.629L419.918 165.319L461.434 176.385L536 125.972L489.043 236.633L443.094 360V300.161L378 360V19Z" fill="#000000"/>
<path d="M158 19L87.0612 136.629L116.082 165.319L74.5663 176.385L5.24521e-06 125.972L46.9566 236.633L92.9056 360V300.161L158 360V19Z" fill="#000000"/>
<ellipse cx="268" cy="360" rx="110" ry="19" fill="#000000"/>
<path d="M273.5 38C273.5 35.2386 271.261 33 268.5 33C265.739 33 263.5 35.2386 263.5 38H273.5ZM263.5 38V341H273.5V38H263.5Z" fill="#000000"/>
<ellipse cx="268" cy="19" rx="110" ry="19" fill="#000000"/>
</svg>
