<svg xmlns="http://www.w3.org/2000/svg" version="1.1" xmlns:xlink="http://www.w3.org/1999/xlink" xmlns:svgjs="http://svgjs.dev/svgjs" width="1440" height="250" preserveAspectRatio="none" viewBox="0 0 1440 250"><g mask="url(&quot;#SvgjsMask1027&quot;)" fill="none"><path d="M9 250L259 0L563.5 0L313.5 250z" fill="url(&quot;#SvgjsLinearGradient1028&quot;)"></path><path d="M268.6 250L518.6 0L794.6 0L544.6 250z" fill="url(&quot;#SvgjsLinearGradient1028&quot;)"></path><path d="M494.20000000000005 250L744.2 0L991.7 0L741.7 250z" fill="url(&quot;#SvgjsLinearGradient1028&quot;)"></path><path d="M728.8000000000001 250L978.8000000000001 0L1140.8000000000002 0L890.8000000000001 250z" fill="url(&quot;#SvgjsLinearGradient1028&quot;)"></path><path d="M1405 250L1155 0L861 0L1111 250z" fill="url(&quot;#SvgjsLinearGradient1029&quot;)"></path><path d="M1192.4 250L942.4000000000001 0L681.4000000000001 0L931.4000000000001 250z" fill="url(&quot;#SvgjsLinearGradient1029&quot;)"></path><path d="M963.8 250L713.8 0L412.29999999999995 0L662.3 250z" fill="url(&quot;#SvgjsLinearGradient1029&quot;)"></path><path d="M684.1999999999999 250L434.19999999999993 0L170.19999999999993 0L420.19999999999993 250z" fill="url(&quot;#SvgjsLinearGradient1029&quot;)"></path><path d="M1309.7932906052945 250L1440 119.79329060529454L1440 250z" fill="url(&quot;#SvgjsLinearGradient1028&quot;)"></path><path d="M0 250L130.20670939470546 250L 0 119.79329060529454z" fill="url(&quot;#SvgjsLinearGradient1029&quot;)"></path></g><defs><mask id="SvgjsMask1027"><rect width="1440" height="250" fill="#ffffff"></rect></mask><linearGradient x1="0%" y1="100%" x2="100%" y2="0%" id="SvgjsLinearGradient1028"><stop stop-color="rgba(0, 0, 0, 0.35)" offset="0"></stop><stop stop-opacity="0" stop-color="rgba(0, 0, 0, 0.35)" offset="0.66"></stop></linearGradient><linearGradient x1="100%" y1="100%" x2="0%" y2="0%" id="SvgjsLinearGradient1029"><stop stop-color="rgba(0, 0, 0, 0.35)" offset="0"></stop><stop stop-opacity="0" stop-color="rgba(0, 0, 0, 0.35)" offset="0.66"></stop></linearGradient></defs></svg>